<?xml version="1.0" standalone="no"?><!DOCTYPE svg PUBLIC "-//W3C//DTD SVG 1.1//EN" "http://www.w3.org/Graphics/SVG/1.1/DTD/svg11.dtd"><svg width="200" height="200" viewBox="0 0 200 200" version="1.1" xmlns="http://www.w3.org/2000/svg" xmlns:xlink="http://www.w3.org/1999/xlink"><defs><style type="text/css"><![CDATA[
@font-face { font-family: ifont; src: url(http://at.alicdn.com/t/font_1442373896_4754455.eot?#iefix) format(embedded-opentype), url(http://at.alicdn.com/t/font_1442373896_4754455.woff) format(woff), url(http://at.alicdn.com/t/font_1442373896_4754455.ttf) format(truetype), url(http://at.alicdn.com/t/font_1442373896_4754455.svg#ifont) format(svg); }

]]></style></defs><g class="transform-group"><g transform="scale(0.1953125, 0.1953125)"><path d="M872.411 355.813c-23.328-86.678-92.829-137.823-184.419-137.547-68.947 0.394-131.25 42.898-171.47 116.857-40.735-73.78-105.733-116.746-174.149-116.925-92.628 0.598-158.901 50.898-181.836 137.932-6.113 23.198-6.251 48.103-6.432 76.931l-0.005 2.731c-1.009 156.7 337.494 420.239 351.909 431.361 3.294 2.544 7.188 3.787 11.070 3.787 5.422 0 10.783-2.407 14.366-7.046 6.124-7.895 4.675-19.303-3.261-25.434-94.201-72.859-338.559-287.198-337.815-402.464l0.005-2.731c0.16-26.389 0.304-49.166 5.222-67.902 25.258-95.813 102.957-110.623 147.014-110.901h0.853c55.635 0 109.026 37.796 142.979 101.271 4.29 8.004 13.216 24.688 30.175 24.688h0.090c16.985-0.035 26.033-17.29 29.879-24.615 33.686-64.041 85.312-100.951 141.618-101.271h1.062c36.468 0 121.321 11.12 148.115 110.724 5.298 19.623 5.439 43.57 5.613 72.295 0.459 67.339-81.914 178.381-231.918 312.741-7.456 6.658-8.096 18.13-1.422 25.61 6.7 7.471 18.173 8.080 25.61 1.421 111.681-100.034 244.671-240.19 243.999-340.962-0.194-30.255-0.354-56.398-6.859-80.551z" fill="#ecf0f1"></path></g></g></svg>